<svg xmlns="http://www.w3.org/2000/svg">
  <defs>
    <filter id="toon-shadow" x="-20%" y="-20%" width="140%" height="160%">
      <feDropShadow dx="0" dy="7" stdDeviation="2" flood-color="#151426" flood-opacity=".35"/>
    </filter>
  </defs>
  <symbol id="bop" viewBox="0 0 320 300">
    <g class="rig rig-bop" filter="url(#toon-shadow)" stroke="#151426" stroke-width="9" stroke-linecap="round" stroke-linejoin="round">
      <path class="limb arm arm-left" d="M92 150Q47 138 31 177" fill="none"/>
      <path class="limb arm arm-right" d="M225 147q50-27 68 10" fill="none"/>
      <path class="limb leg leg-left" d="M124 217q-7 28-22 42" fill="none"/>
      <path class="limb leg leg-right" d="M195 216q8 28 23 41" fill="none"/>
      <ellipse cx="95" cy="263" rx="41" ry="21" fill="#fff4d6"/>
      <ellipse cx="224" cy="263" rx="41" ry="21" fill="#fff4d6"/>
      <path d="M67 259h55M197 259h55" fill="none" stroke-width="5"/>
      <path d="M66 124q5-65 35-78l17 37M253 124q-5-65-35-78l-17 37" fill="#ffe8b5"/>
      <path class="body" d="M64 150q-1-72 96-81 97 9 96 81 4 79-96 83-100-4-96-83z" fill="#24c5c7"/>
      <path d="m79 116-20-12m31-10-10-22m158 44 20-12m-31-10 10-22" fill="none" stroke="#087d8c" stroke-width="8"/>
      <ellipse cx="128" cy="138" rx="24" ry="32" fill="#fff"/>
      <ellipse cx="192" cy="138" rx="24" ry="32" fill="#fff"/>
      <ellipse cx="134" cy="145" rx="9" ry="14" fill="#151426" stroke="none"/>
      <ellipse cx="186" cy="145" rx="9" ry="14" fill="#151426" stroke="none"/>
      <path d="M132 188q28 24 56 0" fill="#ff713d"/>
      <path d="M137 188q23 11 46 0" fill="#fff" stroke-width="5"/>
      <g class="hand hand-left" transform="translate(28 181)"><circle r="18" fill="#fff4d6"/><path d="M-7-8 0 0M6-10 2 1" fill="none" stroke-width="4"/></g>
      <g class="hand hand-right" transform="translate(292 158)"><circle r="18" fill="#fff4d6"/><path d="M-7-8 0 0M6-10 2 1" fill="none" stroke-width="4"/></g>
    </g>
  </symbol>
  <symbol id="crumbler" viewBox="0 0 320 300">
    <g class="rig rig-crumbler" filter="url(#toon-shadow)" stroke="#151426" stroke-width="9" stroke-linecap="round" stroke-linejoin="round">
      <path d="M90 210q-35 25-40 50m180-50q35 25 40 50M77 265h-45m256 0h-45" fill="none"/>
      <path d="M75 170Q28 155 34 117m211 53q47-15 41-53" fill="none"/>
      <path class="body" d="m77 44 61 9 50-12 58 22-8 53 14 53-25 63-67 3-69 2-27-60 12-56z" fill="#a89579"/>
      <path d="m101 73 30 23-22 31m82-58-24 28 30 23m-100 52 30-18 31 32 35-20" fill="none" stroke="#72624f" stroke-width="6"/>
      <ellipse cx="126" cy="137" rx="20" ry="28" fill="#fff"/>
      <ellipse cx="191" cy="137" rx="20" ry="28" fill="#fff"/>
      <circle cx="132" cy="144" r="8" fill="#151426" stroke="none"/><circle cx="185" cy="144" r="8" fill="#151426" stroke="none"/>
      <path d="M120 194q39-20 78 0" fill="none"/>
      <g fill="#fff4d6"><circle cx="35" cy="112" r="17"/><circle cx="285" cy="112" r="17"/></g>
    </g>
  </symbol>
  <symbol id="syrup-slug" viewBox="0 0 320 300">
    <g class="rig rig-slug" filter="url(#toon-shadow)" stroke="#151426" stroke-width="9" stroke-linecap="round" stroke-linejoin="round">
      <path class="body" d="M39 225q42-7 50-40 5-85 85-91 67-5 74 57 6 45 40 65-35 37-109 19-87 23-140-10z" fill="#ffad35"/>
      <path d="M129 100q-11-44 9-55m66 54q17-38 35-43" fill="none"/>
      <circle cx="137" cy="43" r="13" fill="#ffad35"/><circle cx="240" cy="54" r="13" fill="#ffad35"/>
      <ellipse cx="150" cy="143" rx="21" ry="27" fill="#fff"/><ellipse cx="207" cy="141" rx="21" ry="27" fill="#fff"/>
      <circle cx="157" cy="149" r="8" fill="#151426" stroke="none"/><circle cx="201" cy="147" r="8" fill="#151426" stroke="none"/>
      <path d="M148 189q34 30 69-2" fill="#fff"/>
      <path d="M82 230q-28 20-49 4m212 1q31 17 53-2" fill="none" stroke="#ef7c20" stroke-width="6"/>
    </g>
  </symbol>
  <symbol id="springbean" viewBox="0 0 320 300">
    <g class="rig rig-bean" filter="url(#toon-shadow)" stroke="#151426" stroke-width="9" stroke-linecap="round" stroke-linejoin="round">
      <path d="M138 206q-55 14-34 29 67 22 111 4 28-13-39-25-78-8-79 22 11 32 120 13" fill="none"/>
      <path d="M95 128q-48 10-58 48m186-52q47-7 61 30" fill="none"/>
      <path class="body" d="M94 88q20-48 76-34 59 16 63 72 3 66-64 86-75 4-81-58-2-35 6-66z" fill="#f6d35d"/>
      <path d="M121 65q-7-24 9-37m40 28q15-29 40-19" fill="none" stroke="#72c95a"/>
      <ellipse cx="139" cy="124" rx="22" ry="28" fill="#fff"/><ellipse cx="190" cy="120" rx="22" ry="28" fill="#fff"/>
      <circle cx="145" cy="131" r="8" fill="#151426" stroke="none"/><circle cx="184" cy="127" r="8" fill="#151426" stroke="none"/>
      <path d="M136 167q34 31 68-4" fill="#ff713d"/>
      <g fill="#fff4d6"><circle cx="37" cy="176" r="17"/><circle cx="283" cy="154" r="17"/></g>
    </g>
  </symbol>
  <symbol id="king-squashbuckler" viewBox="0 0 440 350">
    <g class="rig rig-squashbuckler" filter="url(#toon-shadow)" stroke="#151426" stroke-width="10" stroke-linecap="round" stroke-linejoin="round">
      <path class="cape" d="M310 123q96 62 70 179-48-29-111-27z" fill="#7451c7"/>
      <path d="m286 93 19-47 25 35 37-20-6 53z" fill="#f6d35d"/>
      <circle cx="307" cy="46" r="7" fill="#ef4770"/><circle cx="330" cy="77" r="7" fill="#24c5c7"/><circle cx="363" cy="59" r="7" fill="#ef4770"/>
      <path class="leg leg-left" d="M172 270q-9 36-35 47" fill="none" stroke-width="14"/>
      <path class="leg leg-right" d="M279 270q12 32 38 46" fill="none" stroke-width="14"/>
      <path d="M82 322q38-31 77-2l-8 22H83zM297 319q38-29 75 5l-7 19h-66z" fill="#5b3f35"/>
      <path d="M95 317q11 8 16 25m212-25q11 8 17 25" fill="none" stroke="#f6d35d" stroke-width="5"/>
      <path class="arm arm-upper-left" d="M139 145q-73-28-91 22" fill="none" stroke-width="13"/>
      <path class="arm arm-lower-left" d="M133 214q-74 7-82 62" fill="none" stroke-width="13"/>
      <path class="arm arm-upper-right" d="M309 143q72-34 94 11" fill="none" stroke-width="13"/>
      <path class="arm arm-lower-right" d="M313 213q74 1 85 51" fill="none" stroke-width="13"/>
      <path class="body" d="M109 157q7-97 113-113 112 9 126 111 8 119-120 139-130-8-119-137z" fill="#ff8c31"/>
      <path d="M223 50q-27 37-18 84M151 83q40 30 44 73M296 82q-41 31-50 76M125 171q42-12 77 7m51 0q39-20 76-6" fill="none" stroke="#d96524" stroke-width="7"/>
      <path d="M111 117q-27-40 8-61 18 3 25 35M326 116q31-38-1-63-21 4-27 39" fill="#72c95a"/>
      <ellipse cx="178" cy="146" rx="27" ry="35" fill="#fff"/>
      <ellipse cx="269" cy="145" rx="27" ry="35" fill="#fff"/>
      <ellipse cx="187" cy="155" rx="10" ry="16" fill="#151426" stroke="none"/>
      <ellipse cx="260" cy="154" rx="10" ry="16" fill="#151426" stroke="none"/>
      <path class="mustache" d="M219 183q-48-41-78 5 20 18 62 10m25-15q50-40 79 8-22 17-63 8" fill="#ffe8b5"/>
      <path d="M184 227q41 33 83 0" fill="#151426"/>
      <path d="M197 228q28 15 57 0" fill="#fff" stroke-width="5"/>
      <g transform="translate(46 168)"><circle r="22" fill="#fff4d6"/><path d="m-8-9 8 9m7-12-4 13" fill="none" stroke-width="5"/></g>
      <g transform="translate(50 279)"><circle r="22" fill="#fff4d6"/><path d="m-8-9 8 9m7-12-4 13" fill="none" stroke-width="5"/></g>
      <g transform="translate(404 154)"><circle r="22" fill="#fff4d6"/><path d="m-8-9 8 9m7-12-4 13" fill="none" stroke-width="5"/></g>
      <g transform="translate(399 266)"><circle r="22" fill="#fff4d6"/><path d="m-8-9 8 9m7-12-4 13" fill="none" stroke-width="5"/></g>
      <g class="seed-trumpet" transform="translate(75 210) rotate(-18)">
        <path d="M0 0h79" fill="none" stroke="#c88a25" stroke-width="17"/>
        <path d="m72-33 58 33-58 33z" fill="#f6d35d"/>
        <circle cx="7" r="17" fill="#f6d35d"/>
        <g fill="#ffe8b5" stroke-width="5"><ellipse cx="137" cy="-14" rx="9" ry="5"/><ellipse cx="151" cy="3" rx="9" ry="5"/><ellipse cx="138" cy="19" rx="9" ry="5"/></g>
      </g>
      <path d="M156 262q69 30 137 0" fill="none" stroke="#72c95a" stroke-width="15"/>
      <circle cx="223" cy="267" r="29" fill="#f6d35d"/>
      <path d="m223 246 7 14 16 2-12 11 3 16-14-8-14 8 3-16-12-11 16-2z" fill="#ef4770" stroke-width="5"/>
    </g>
  </symbol>
  <symbol id="royal-seedling" viewBox="0 0 120 120">
    <g stroke="#151426" stroke-width="7" stroke-linecap="round" stroke-linejoin="round">
      <path d="M47 87q-24 10-28 25m54-25q24 10 28 25M29 62Q8 58 8 39m83 23q21-4 21-23" fill="none"/>
      <path d="M30 44q4-33 31-35 30 4 31 36 1 43-32 47-34-5-30-48z" fill="#ff8c31"/>
      <path d="M54 12Q43-2 34 7m34 5Q79-2 87 7" fill="#72c95a"/>
      <ellipse cx="50" cy="49" rx="9" ry="13" fill="#fff"/><ellipse cx="72" cy="49" rx="9" ry="13" fill="#fff"/>
      <circle cx="53" cy="53" r="3" fill="#151426" stroke="none"/><circle cx="69" cy="53" r="3" fill="#151426" stroke="none"/>
      <path d="M50 72q11 9 22 0" fill="#fff"/>
      <circle cx="8" cy="38" r="9" fill="#fff4d6"/><circle cx="112" cy="38" r="9" fill="#fff4d6"/>
    </g>
  </symbol>
</svg>
