<svg xmlns="http://www.w3.org/2000/svg" viewBox="0 0 760 190" role="img" aria-labelledby="title desc">
  <title id="title">Echobound logo</title>
  <desc id="desc">Playful turquoise and orange Echobound wordmark with an echo creature face inside the second O.</desc>
  <defs>
    <filter id="rough" x="-10%" y="-20%" width="120%" height="150%">
      <feTurbulence baseFrequency=".018" numOctaves="2" seed="7" result="noise"/>
      <feDisplacementMap in="SourceGraphic" in2="noise" scale="2.2"/>
    </filter>
  </defs>
  <path d="M24 32C88 8 656 9 727 37l-10 112c-160 28-520 27-692-2z" fill="#151426" stroke="#151426" stroke-width="12" stroke-linejoin="round"/>
  <g filter="url(#rough)" font-family="Arial Black, Impact, sans-serif" font-size="91" font-weight="900" letter-spacing="-5" stroke="#151426" stroke-width="9" paint-order="stroke fill">
    <text x="42" y="122" fill="#24c5c7">ECHO</text>
    <text x="316" y="122" fill="#ff713d">BOUND</text>
  </g>
  <g transform="translate(347 78)">
    <circle r="36" fill="#ff713d" stroke="#151426" stroke-width="8"/>
    <path d="M-23-23l-7-16 19 10M23-23l7-16-19 10" fill="#ffe8b5" stroke="#151426" stroke-width="6" stroke-linecap="round" stroke-linejoin="round"/>
    <ellipse cx="-12" cy="-4" rx="7" ry="10" fill="#fff"/>
    <ellipse cx="12" cy="-4" rx="7" ry="10" fill="#fff"/>
    <circle cx="-10" cy="-2" r="3.5" fill="#151426"/>
    <circle cx="10" cy="-2" r="3.5" fill="#151426"/>
    <path d="M-15 14q15 15 30 0" fill="none" stroke="#151426" stroke-width="6" stroke-linecap="round"/>
  </g>
  <path d="M42 159q154 18 300 4M418 164q145 12 277-5" fill="none" stroke="#f6d35d" stroke-width="8" stroke-linecap="round"/>
</svg>
